#!OML:ASF F:\VICON\USERDATA\INSTALL\rory3\rory3.ASF
:FULLY-SPECIFIED
:DEGREES
1
root 1.92817 18.4484 -23.8615 6.62406 1.07637 -4.53411
lowerback 16.5454 0.478852 5.05221
upperback -0.650507 1.69026 0.604252
thorax -9.90547 0.56122 -2.62729
lowerneck -0.958909 -1.63894 -0.790949
upperneck -10.7518 -1.96873 2.78902
head -3.24357 -1.04271 1.09235
rclavicle -9.83984e-015 -1.98785e-016
rhumerus -33.3272 19.8331 -85.5754
rradius 114.767
rwrist -4.39005
rhand -32.0974 32.0117
rfingers 7.12502
rthumb -5.34275 2.099
lclavicle -9.83984e-015 -1.98785e-016
lhumerus -66.0662 -5.90077 95.5877
lradius 107.287
lwrist 27.3635
lhand -37.0271 8.98768
lfingers 7.12502
lthumb -10.1008 38.7252
rfemur 24.5699 11.6453 32.2157
rtibia 5.96951
rfoot 31.2717 -15.0453
rtoes 10.2654
lfemur -46.368 -5.84919 -12.8968
ltibia 64.4305
lfoot 2.92034 -7.46712
ltoes -16.2976
2
root 1.94218 18.5213 -23.2972 6.55415 0.880808 -4.6226
lowerback 15.7909 0.545039 5.06705
upperback -0.356735 1.72572 0.644406
thorax -9.14903 0.606427 -2.57816
lowerneck -1.41003 -1.52714 -1.25501
upperneck -10.5776 -1.8171 2.9135
head -3.09896 -0.949908 1.20102
rclavicle 1.05853e-014 -1.63003e-014
rhumerus -33.4054 20.8679 -85.6661
rradius 114.672
rwrist -4.14849
rhand -32.0525 32.2448
rfingers 7.12502
rthumb -5.29943 2.33103
lclavicle 1.05853e-014 -1.63003e-014
lhumerus -65.9108 -4.84094 95.2278
lradius 107.393
lwrist 26.6981
lhand -37.3497 9.83702
lfingers 7.12502
lthumb -10.412 39.5592
rfemur 25.7922 11.7754 32.4635
rtibia 6.05428
rfoot 34.0186 -13.7796
rtoes 15.1407
lfemur -45.3114 -6.14404 -12.5359
ltibia 58.9192
lfoot 3.50205 -7.21054
ltoes -15.9098
3
root 1.93878 18.5638 -22.8117 7.14512 2.52252 -4.50808
lowerback 15.4451 0.102248 5.22514
upperback -0.535562 1.15348 0.643306
thorax -9.19222 0.321309 -2.53265
lowerneck -1.8999 -1.59946 -1.35029
upperneck -10.4699 -1.91872 2.85057
head -2.96904 -0.991148 1.19015
rclavicle 1.29955e-014 -1.2921e-015
rhumerus -33.598 21.4398 -85.8111
rradius 114.475
rwrist -3.95935
rhand -32.149 32.5873
rfingers 7.12502
rthumb -5.3926 2.67594
lclavicle 1.29955e-014 -1.2921e-015
lhumerus -65.7767 -4.30252 94.9114
lradius 107.611
lwrist 26.2414
lhand -37.1155 9.22481
lfingers 7.12502
lthumb -10.186 38.9582
rfemur 24.5555 10.1884 32.6087
rtibia 8.9633
rfoot 33.7405 -11.4277
rtoes 18.9252
lfemur -45.682 -7.6719 -12.1334
ltibia 53.5658
lfoot 4.98692 -7.52324
ltoes -13.813
4
root 1.95713 18.6048 -22.2743 6.70927 2.25966 -4.72669
lowerback 15.718 0.4016 5.61403
upperback -0.496373 1.61507 0.393334
thorax -9.24979 0.515528 -3.13424
lowerneck -1.74845 -1.86748 -0.729856
upperneck -10.621 -2.29675 2.53183
head -3.0481 -1.19367 0.990951
rclavicle -2.09221e-014 -1.82882e-014
rhumerus -34.3721 21.2083 -86.3305
rradius 114.283
rwrist -3.73912
rhand -31.8233 32.4649
rfingers 7.12502
rthumb -5.07816 2.54576
lclavicle -2.09221e-014 -1.82882e-014
lhumerus -66.0095 -4.57283 94.5323
lradius 107.923
lwrist 26.1245
lhand -35.8083 7.69523
lfingers 7.12502
lthumb -8.92479 37.4865
rfemur 25.0135 10.283 33.0893
rtibia 11.4191
rfoot 33.0212 -8.59901
rtoes 19.2002
lfemur -43.9828 -7.97002 -11.6651
ltibia 48.0647
lfoot 5.53298 -6.99834
ltoes -13.8761
5
root 1.9589 18.6271 -21.7594 7.05142 2.73986 -5.09209
lowerback 15.1848 0.409566 6.00448
upperback -0.498195 1.65923 0.385201
thorax -8.93462 0.529237 -3.36014
lowerneck -1.95987 -2.00053 -0.362631
upperneck -10.9337 -2.49442 2.20338
head -3.1205 -1.2954 0.826584
rclavicle -2.55438e-014 -2.18663e-015
rhumerus -34.6998 21.3551 -86.5647
rradius 113.952
rwrist -3.85
rhand -31.3634 32.4452
rfingers 7.12502
rthumb -4.63404 2.51592
lclavicle -2.55438e-014 -2.18663e-015
lhumerus -65.6522 -4.62051 94.2319
lradius 108.145
lwrist 25.8959
lhand -34.4841 6.91868
lfingers 7.12502
lthumb -7.64683 36.7604
rfemur 24.002 9.81022 33.7342
rtibia 14.778
rfoot 31.4278 -5.78431
rtoes 17.3013
lfemur -43.3058 -8.63816 -10.8389
ltibia 42.6812
lfoot 6.03634 -5.93395
ltoes -18.061
6
root 1.96182 18.6459 -21.2332 6.68145 2.80675 -5.54176
lowerback 15.1291 0.432412 6.19721
upperback -0.0319562 1.71287 0.538888
thorax -8.38694 0.579055 -3.30697
lowerneck -2.7656 -2.00451 -0.311559
upperneck -11.2242 -2.50887 2.04927
head -3.07436 -1.29694 0.759986
rclavicle 2.6339e-014 1.74931e-014
rhumerus -34.4937 21.801 -86.6231
rradius 113.326
rwrist -3.84941
rhand -31.4638 32.1193
rfingers 7.12502
rthumb -4.73098 2.19212
lclavicle 2.6339e-014 1.74931e-014
lhumerus -64.4684 -4.38231 94.0109
lradius 108.028
lwrist 25.5802
lhand -33.1589 6.34522
lfingers 7.12502
lthumb -6.36766 36.2295
rfemur 23.6867 9.59989 34.5008
rtibia 18.1839
rfoot 29.9523 -3.78083
rtoes 16.5272
lfemur -41.6635 -9.03026 -10.1055
ltibia 37.5891
lfoot 6.68943 -4.65868
ltoes -19.9195
